<?xml version="1.0" standalone="no"?>
<!DOCTYPE svg PUBLIC "-//W3C//DTD SVG 20010904//EN"
 "http://www.w3.org/TR/2001/REC-SVG-20010904/DTD/svg10.dtd">
<svg version="1.0" xmlns="http://www.w3.org/2000/svg"
 width="486.000000pt" height="318.000000pt" viewBox="0 0 486.000000 318.000000"
 preserveAspectRatio="xMidYMid meet">

<g transform="translate(0.000000,318.000000) scale(0.100000,-0.100000)"
fill="#000000" stroke="none">
<path d="M1460 850 l0 -720 1695 0 1695 0 0 720 0 720 -1695 0 -1695 0 0 -720z
m493 128 c43 -266 77 -489 77 -495 0 -15 -85 -18 -94 -5 -3 5 -11 50 -17 101
l-13 92 -75 -3 -76 -3 -11 -85 c-7 -47 -13 -91 -13 -97 -1 -14 -101 -19 -101
-6 0 12 151 958 155 971 3 7 22 12 48 12 l43 0 77 -482z m425 462 c84 -51 117
-136 133 -336 13 -165 0 -368 -31 -467 -25 -81 -76 -139 -135 -156 -22 -6 -75
-11 -117 -11 l-78 0 0 495 0 495 98 0 c80 0 103 -4 130 -20z m1513 -295 c25
-171 48 -319 50 -330 3 -11 27 130 54 313 l49 332 48 0 c32 0 48 -4 48 -12 0
-7 13 -206 29 -443 17 -236 31 -452 33 -480 l2 -50 -45 -3 -46 -3 -6 58 c-4
32 -12 160 -19 286 -6 125 -15 224 -19 220 -3 -5 -26 -129 -49 -278 -23 -148
-44 -273 -47 -277 -9 -16 -62 -8 -67 10 -3 9 -21 132 -41 272 -20 140 -39 263
-43 273 -4 10 -15 -108 -25 -264 -10 -155 -20 -286 -23 -290 -3 -5 -25 -9 -50
-9 -32 0 -44 4 -44 15 0 8 16 225 35 482 19 257 35 474 35 481 0 9 13 12 47
10 l47 -3 47 -310z m-437 -16 l26 -31 0 31 c0 31 1 31 50 31 l51 0 -3 -432
c-3 -395 -5 -436 -21 -466 -26 -48 -72 -72 -137 -72 -100 0 -150 54 -150 160
l0 50 45 0 c43 0 44 -1 51 -37 11 -61 21 -73 60 -73 46 0 54 23 54 152 l0 101
-23 -34 c-48 -72 -113 -61 -157 26 -24 49 -25 55 -25 270 0 245 5 281 41 325
21 25 33 30 69 30 36 0 48 -5 69 -31z m1089 -2 c44 -41 57 -86 64 -224 l6
-113 -108 0 -108 0 7 -87 c7 -92 24 -133 55 -133 28 0 45 28 51 84 l5 51 39 3
c21 2 42 0 47 -5 12 -12 -9 -133 -30 -168 -22 -39 -77 -75 -113 -75 -39 0 -82
23 -106 58 -48 67 -72 246 -53 401 21 168 70 241 161 241 41 0 54 -5 83 -33z
m-1495 -89 c21 -23 26 -48 24 -101 -3 -40 -61 -97 -99 -97 -77 0 -103 115 -42
185 38 43 84 48 117 13z m-225 -9 c56 -43 57 -149 2 -185 -85 -55 -170 111
-95 186 26 26 60 25 93 -1z m-141 -159 c48 -52 50 -141 2 -162 -57 -26 -124
38 -124 118 0 85 63 108 122 44z m497 -16 c34 -43 24 -104 -25 -149 -70 -65
-146 15 -99 105 18 34 61 70 86 70 9 0 27 -12 38 -26z m-175 -154 c24 -25 60
-59 80 -76 61 -53 40 -111 -48 -135 -74 -20 -261 -9 -337 20 -34 12 -69 57
-69 87 0 29 13 41 110 105 75 49 75 49 148 46 72 -2 74 -3 116 -47z"/>
<path d="M1801 993 c-12 -98 -25 -186 -27 -195 -5 -16 2 -18 57 -18 l62 0 -6
28 c-3 15 -15 102 -28 195 -13 92 -26 167 -29 167 -4 0 -16 -80 -29 -177z"/>
<path d="M2250 970 c0 -386 0 -390 20 -390 33 0 78 28 94 58 53 102 57 534 7
647 -20 46 -37 58 -88 68 l-33 7 0 -390z"/>
<path d="M3388 1023 c-17 -38 -16 -368 0 -405 15 -36 55 -38 74 -5 19 33 18
397 -1 420 -22 27 -60 21 -73 -10z"/>
<path d="M4421 1051 c-6 -11 -14 -51 -17 -90 l-7 -71 58 0 58 0 -6 76 c-3 41
-11 82 -17 90 -18 20 -57 17 -69 -5z"/>
</g>
</svg>
